<svg width="229" height="229" viewBox="0 0 229 229" fill="none" xmlns="http://www.w3.org/2000/svg">
<rect width="229" height="229" fill="white"/>
<path d="M58.33 149.12C69.14 138.91 79.95 128.69 90.76 118.48C94.99 114.48 99.42 110.4 105.7 110.48C115.28 110.59 129.29 117.07 138.01 114.72C147.92 112.05 178.22 83.1 178.22 83.1L150.7 66.42C150.7 66.42 120.4 95.37 110.49 98.04C101.77 100.39 87.76 93.91 78.18 93.8C71.9 93.73 67.47 97.8 63.24 101.8C52.43 112.01 41.62 122.23 30.81 132.44L58.33 149.12Z" fill="#489FF0"/>
<path d="M22.2 124.45C33.01 114.24 43.82 104.02 54.63 93.81C58.86 89.81 63.29 85.73 69.57 85.81C79.15 85.92 93.16 92.4 101.88 90.05C111.79 87.38 142.09 58.43 142.09 58.43L124.88 48C124.88 48 94.58 76.95 84.67 79.62C75.95 81.97 61.94 75.49 52.36 75.38C46.08 75.31 41.65 79.38 37.42 83.38C26.62 93.6 15.81 103.81 5 114.02L22.2 124.45Z" fill="#92C3FF"/>
<path d="M104.78 180.05C115.59 169.84 126.4 159.62 137.21 149.41C141.44 145.41 145.87 141.33 152.15 141.41C161.73 141.52 175.74 148 184.46 145.65C194.37 142.98 224.67 114.03 224.67 114.03L186.83 91.09C186.83 91.09 156.53 120.04 146.62 122.71C137.9 125.06 123.89 118.58 114.31 118.47C108.03 118.4 103.6 122.47 99.37 126.47C88.56 136.68 77.75 146.9 66.94 157.11L104.78 180.05Z" fill="#2360C9"/>
</svg>
